<svg  style="color: white;"  xmlns="http://www.w3.org/2000/svg" width="24" height="24" viewBox="0 0 24 24" fill="none" stroke="currentColor" stroke-width="2" stroke-linecap="round" stroke-linejoin="round">
  <polyline points="8 3 3 3 3 8"></polyline>
  <polyline points="16 3 21 3 21 8"></polyline>
  <polyline points="8 21 3 21 3 16"></polyline>
  <polyline points="16 21 21 21 21 16"></polyline>
  <path d="M8.5 10a3.5 3.5 0 0 0-5 2.5V17a3 3 0 0 1 3-3h7v-4h-1a3.5 3.5 0 0 0-3.5-3.5V10z"></path>
  <path d="M15.5 10a3.5 3.5 0 0 1 5 2.5V17a3 3 0 0 0-3-3h-7v-4h1a3.5 3.5 0 0 1 3.5-3.5V10z"></path>
</svg>